<?xml version="1.0" encoding="UTF-8"?>
<svg id="Capa_2" data-name="Capa 2" xmlns="http://www.w3.org/2000/svg" viewBox="0 0 357.84 323.47">
  <defs>
    <style>
      .cls-1 {
        fill: #edfaff;
      }
    </style>
  </defs>
  <g id="Capa_1-2" data-name="Capa 1">
    <g>
      <path class="cls-1" d="M287.51,200.66h70.33c-5.82,75.7-51.96,118.25-130.8,118.25-34.23,0-62.62-8.22-84.72-23.96-9.86,11.79-24.25,19.74-39.19,23.84-18.53,5.1-38.04,5-57.25,4.39-15.29-.51-30.6-1.33-45.88-2.48,26.05-2.79,50.79-16.13,67.44-36.34,31.46-38.25,19.41-79.8,19.41-124.45C86.85,57.33,137.01,0,227.04,0c77.48,0,125.41,42.1,130.8,118.23h-70.78c-5.82-39.85-26.87-61.35-60.9-61.35-43.91,0-68.55,34.93-68.55,103.02s24.64,102.12,68.55,102.12c34.03,0,55.53-21.95,61.35-61.37Z"/>
      <path class="cls-1" d="M279.04,159.83c-34.4,0-47.37,12.97-47.37,47.37,0-34.4-12.97-47.37-47.37-47.37,34.4,0,47.37-12.97,47.37-47.37,0,34.4,12.97,47.37,47.37,47.37Z"/>
    </g>
  </g>
</svg>