<?xml version="1.0" encoding="UTF-8"?>
<svg id="Capa_2" data-name="Capa 2" xmlns="http://www.w3.org/2000/svg" viewBox="0 0 790.73 342.64">
  <defs>
    <style>
      .cls-1 {
        fill: #b26f42;
      }
    </style>
  </defs>
  <g id="Capa_1-2" data-name="Capa 1">
    <g>
      <path class="cls-1" d="M208.59,128.85h45.16c-3.74,48.61-33.37,75.94-83.99,75.94-21.98,0-40.21-5.28-54.4-15.39-6.33,7.57-15.57,12.68-25.17,15.31-11.9,3.28-24.43,3.21-36.76,2.82-9.82-.33-19.65-.86-29.46-1.59,16.73-1.79,32.62-10.36,43.31-23.34,20.2-24.56,12.47-51.24,12.47-79.91C79.73,36.82,111.94,0,169.76,0c49.76,0,80.53,27.04,83.99,75.92h-45.45c-3.74-25.59-17.26-39.4-39.11-39.4-28.19,0-44.02,22.43-44.02,66.16s15.82,65.58,44.02,65.58c21.85,0,35.66-14.1,39.4-39.41Z"/>
      <path class="cls-1" d="M284.8,3.16h43.14v159.91h86.57v38.54h-129.72V3.16Z"/>
      <path class="cls-1" d="M757.51,91.16c-1.52-.11-15.4-1.14-15.4-1.14v4.31c31.93,4.03,48.32,22.15,48.32,50.05,0,32.79-23.59,57.24-71.33,57.24h-85.42V3.45l86.57-.29c44.87,0,65.58,17.83,65.58,47.17,0,10.52-3.15,21.1-10.11,29.14-7.58,8.76-17.7,12.06-28.78,14.04-2.66.48-5.33.87-8.02,1.19-.89.1-1.98.11-2.46-.65-.35-.56-.17-1.32.25-1.83s1.03-.81,1.63-1.08c7.12-3.26,15.25-4.29,22.96-2.9M712.49,84.56c21.57,0,30.78-10.07,30.78-26.17s-8.63-25.31-30.78-25.31h-37.1v51.48h37.1ZM713.64,171.13c25.31,0,35.38-10.64,35.38-29.05s-10.07-29.34-35.38-29.34h-38.25v58.39h38.25Z"/>
      <g>
        <path class="cls-1" d="M35.04,110.62h7.33c-1.38,7.25-7.66,13.52-18.25,13.52-12.22,0-19.47-8.88-19.47-22.4,0-12.22,7.17-21.26,19.23-21.26,9.37,0,15.97,5.54,18.09,14.42.57,2.36.81,5.3.81,8.88H11.83c.33,10.18,5.54,14.83,12.3,14.83,6.03,0,9.94-3.34,10.92-7.98ZM11.91,98.32h23.79c-.73-8.07-5.46-12.3-11.81-12.3s-11.24,4.4-11.98,12.3Z"/>
        <path class="cls-1" d="M52.48,123.01v-58h7.17v58h-7.17Z"/>
      </g>
      <g>
        <g>
          <path class="cls-1" d="M39.47,322.96v-7.87h-.21c-2.98,5.64-9.26,9.15-16.6,9.15-13.83,0-22.66-11.17-22.66-28.41s8.83-28.3,22.55-28.3c7.23,0,13.51,3.41,16.49,8.83h.21v-29.15h9.36v75.75h-9.15ZM9.79,295.83c0,12.66,5.96,20.85,15.21,20.85s14.79-7.98,14.79-20.85-5.85-20.75-14.79-20.75-15.21,8.09-15.21,20.75Z"/>
          <path class="cls-1" d="M100.97,306.79h9.58c-1.81,9.47-10,17.66-23.83,17.66-15.96,0-25.43-11.6-25.43-29.26,0-15.96,9.36-27.77,25.11-27.77,12.23,0,20.85,7.23,23.62,18.83.75,3.08,1.06,6.91,1.06,11.6h-40.43c.43,13.3,7.23,19.36,16.07,19.36,7.87,0,12.98-4.36,14.26-10.43ZM70.75,290.72h31.07c-.96-10.53-7.13-16.07-15.43-16.07s-14.68,5.75-15.64,16.07Z"/>
          <path class="cls-1" d="M183.96,306.79h9.58c-1.81,9.47-10,17.66-23.83,17.66-15.96,0-25.43-11.6-25.43-29.26,0-15.96,9.36-27.77,25.11-27.77,12.23,0,20.85,7.23,23.62,18.83.75,3.08,1.06,6.91,1.06,11.6h-40.43c.43,13.3,7.23,19.36,16.07,19.36,7.87,0,12.98-4.36,14.26-10.43ZM153.74,290.72h31.07c-.96-10.53-7.13-16.07-15.43-16.07s-14.68,5.75-15.64,16.07Z"/>
          <path class="cls-1" d="M245.56,285.83h-9.15c0-7.23-4.47-11.17-12.02-11.17-6.49,0-10.53,2.98-10.53,7.66,0,5.64,3.94,6.6,12.98,8.72,9.89,2.45,20.43,4.68,20.43,17.24,0,9.68-8.3,16.17-21.38,16.17-14.15,0-22.55-6.81-22.66-19.47h9.47c0,7.77,4.89,12.02,13.3,12.02,7.02,0,11.7-3.19,11.7-8.09,0-6.28-4.47-7.45-14.89-10-9.04-2.24-18.3-4.04-18.3-15.85,0-9.26,8.19-15.64,20-15.64,13.19,0,21.07,6.49,21.07,18.41Z"/>
          <path class="cls-1" d="M308.55,295.83c0,17.24-8.83,28.41-22.55,28.41-7.24,0-13.51-3.51-16.49-8.94h-.21v27.34h-9.36v-73.73h9.26v7.77h.21c2.87-5.64,9.26-9.15,16.49-9.15,13.83,0,22.66,11.07,22.66,28.3ZM268.87,295.83c0,12.87,5.75,20.85,14.68,20.85s15.21-8.19,15.21-20.85-5.96-20.75-15.21-20.75-14.68,7.98-14.68,20.75Z"/>
          <path class="cls-1" d="M358.02,306.79h9.58c-1.81,9.47-10,17.66-23.83,17.66-15.96,0-25.43-11.6-25.43-29.26,0-15.96,9.36-27.77,25.11-27.77,12.23,0,20.85,7.23,23.62,18.83.75,3.08,1.06,6.91,1.06,11.6h-40.43c.43,13.3,7.23,19.36,16.07,19.36,7.87,0,12.98-4.36,14.26-10.43ZM327.81,290.72h31.07c-.96-10.53-7.13-16.07-15.43-16.07s-14.68,5.75-15.64,16.07Z"/>
          <path class="cls-1" d="M426.44,288.06h-9.79c-.64-7.66-5.96-12.98-13.4-12.98-9.58,0-15.43,7.98-15.43,20.85s5.85,20.85,15.43,20.85c7.45,0,12.77-5.96,13.4-13.72h9.79c-1.06,12.34-9.89,21.39-23.09,21.39-15.64,0-25.43-10.96-25.43-28.51s9.79-28.51,25.43-28.51c12.98,0,22.02,8.51,23.09,20.64Z"/>
          <path class="cls-1" d="M461.55,315.08v7.66c-1.6.43-4.04.64-5.96.64-10.32,0-14.68-4.36-14.68-15.53v-31.49h-9.36v-7.45h9.36v-13.09h9.36v13.09h10.75v7.45h-10.75v30.53c0,6.17,2.02,8.72,7.45,8.72,1.38,0,2.87-.21,3.83-.53Z"/>
          <path class="cls-1" d="M513.26,288.38v20.75c0,5.96.53,10.53,1.28,13.83h-8.51c-.53-2.45-.74-5.43-.74-7.87h-.21c-3.72,5.75-10,9.04-18.73,9.04-11.28,0-18.3-6.7-18.3-15.85s5-14.58,20.53-17.02c4.79-.74,11.38-1.49,15.64-1.81v-2.13c0-8.94-5-12.66-12.23-12.66-7.87,0-12.02,4.36-12.34,10.75h-9.36c.53-10.21,7.98-17.98,21.7-17.98s21.28,6.7,21.28,20.96ZM504.22,296.57c-4.15.32-10,.96-14.15,1.7-9.26,1.38-12.45,4.04-12.45,9.36s4.04,9.26,11.06,9.26c4.36,0,8.51-1.49,11.17-4.25,3.3-3.41,4.36-6.38,4.36-12.77v-3.3Z"/>
          <path class="cls-1" d="M564.76,322.96v-7.87h-.21c-2.98,5.64-9.26,9.15-16.6,9.15-13.83,0-22.66-11.17-22.66-28.41s8.83-28.3,22.55-28.3c7.23,0,13.51,3.41,16.49,8.83h.21v-29.15h9.36v75.75h-9.15ZM535.07,295.83c0,12.66,5.96,20.85,15.21,20.85s14.79-7.98,14.79-20.85-5.85-20.75-14.79-20.75-15.21,8.09-15.21,20.75Z"/>
          <path class="cls-1" d="M615.3,270.24c17.66,0,28.51,9.89,28.51,25.75s-10.85,25.64-28.51,25.64-28.51-9.79-28.51-25.64,10.85-25.75,28.51-25.75ZM615.3,311.84c12.87,0,20.85-6.06,20.85-15.85s-7.98-15.96-20.85-15.96-20.85,6.06-20.85,15.96,7.98,15.85,20.85,15.85Z"/>
          <path class="cls-1" d="M684.22,268.81v8.41c-1.17-.11-2.55-.32-3.72-.32-10.21,0-15.96,6.6-15.96,18.51v27.55h-9.36v-54.05h8.94v8.3h.21c3.62-5.96,9.04-8.83,15.96-8.83,1.17,0,2.77.11,3.94.43Z"/>
          <path class="cls-1" d="M727.42,306.79h9.58c-1.81,9.47-10,17.66-23.83,17.66-15.96,0-25.43-11.6-25.43-29.26,0-15.96,9.36-27.77,25.11-27.77,12.23,0,20.85,7.23,23.62,18.83.74,3.08,1.06,6.91,1.06,11.6h-40.43c.43,13.3,7.23,19.36,16.06,19.36,7.87,0,12.98-4.36,14.26-10.43ZM697.2,290.72h31.07c-.96-10.53-7.13-16.07-15.43-16.07s-14.68,5.75-15.64,16.07Z"/>
          <path class="cls-1" d="M789.02,285.83h-9.15c0-7.23-4.47-11.17-12.02-11.17-6.49,0-10.53,2.98-10.53,7.66,0,5.64,3.94,6.6,12.98,8.72,9.89,2.45,20.43,4.68,20.43,17.24,0,9.68-8.3,16.17-21.38,16.17-14.15,0-22.56-6.81-22.66-19.47h9.47c0,7.77,4.89,12.02,13.3,12.02,7.02,0,11.7-3.19,11.7-8.09,0-6.28-4.47-7.45-14.9-10-9.04-2.24-18.3-4.04-18.3-15.85,0-9.26,8.19-15.64,20-15.64,13.19,0,21.06,6.49,21.06,18.41Z"/>
          <circle class="cls-1" cx="615.3" cy="295.93" r="7.59"/>
        </g>
        <circle class="cls-1" cx="353.29" cy="287.68" r="7.59"/>
        <circle class="cls-1" cx="702.44" cy="287.68" r="7.59"/>
      </g>
      <path class="cls-1" d="M530.47,3.16c.78,13.95,3.72,35.47,14.48,59.23,8.2,18.1,18.28,31.63,26.33,40.8-4.83,14.04-9.65,28.08-14.48,42.12h-82.93c-4.83-14.04-9.65-28.08-14.48-42.12,8.05-9.18,18.13-22.7,26.33-40.8,10.76-23.76,13.7-45.29,14.48-59.23h-65.25v117.07c0,54.35,29.33,84.56,80.53,84.56s80.24-30.21,80.24-84.56V3.16h-65.25Z"/>
      <path class="cls-1" d="M203.15,102.63c-22.09,0-30.42,8.33-30.42,30.42,0-22.09-8.33-30.42-30.42-30.42,22.09,0,30.42-8.33,30.42-30.42,0,22.09,8.33,30.42,30.42,30.42Z"/>
    </g>
  </g>
</svg>