<?xml version="1.0" encoding="UTF-8"?>
<svg id="Capa_2" data-name="Capa 2" xmlns="http://www.w3.org/2000/svg" viewBox="0 0 2836 1228.91">
  <defs>
    <style>
      .cls-1 {
        font-family: NeueHaasUnicaW1G-Regular, 'Neue Haas Unica W1G';
        font-size: 292.19px;
      }

      .cls-1, .cls-2 {
        fill: #edfaff;
      }
    </style>
  </defs>
  <g id="Capa_1-2" data-name="Capa 1">
    <g>
      <path class="cls-2" d="M748.11,462.13h161.98c-13.41,174.35-119.68,272.35-301.24,272.35-78.84,0-144.23-18.93-195.12-55.19-22.71,27.15-55.85,45.46-90.26,54.91-42.68,11.76-87.62,11.52-131.86,10.1-35.22-1.18-70.48-3.07-105.66-5.71,60-6.42,116.99-37.15,155.32-83.7,72.47-88.09,44.71-183.79,44.71-286.61C285.97,132.05,401.5,0,608.84,0c178.45,0,288.83,96.97,301.24,272.3h-163.01c-13.41-91.78-61.89-141.3-140.26-141.3-101.12,0-157.87,80.45-157.87,237.28s56.75,235.2,157.87,235.2c78.37,0,127.89-50.56,141.3-141.35Z"/>
      <path class="cls-2" d="M1021.47,11.35h154.73v573.54h310.5v138.24h-465.23V11.35Z"/>
      <path class="cls-2" d="M2716.88,326.97c-5.46-.4-55.22-4.09-55.22-4.09v15.47c114.5,14.45,173.3,79.44,173.3,179.5,0,117.59-84.59,205.28-255.83,205.28h-306.37V12.38l310.5-1.03c160.92,0,235.19,63.95,235.19,169.17,0,37.74-11.28,75.66-36.25,104.5-27.2,31.42-63.48,43.24-103.21,50.36-9.54,1.71-19.13,3.13-28.75,4.27-3.2.38-7.12.39-8.82-2.34-1.24-2.01-.6-4.75.9-6.57,1.51-1.82,3.69-2.91,5.84-3.89,25.54-11.69,54.69-15.37,82.33-10.39M2555.41,303.28c77.37,0,110.38-36.11,110.38-93.88s-30.95-90.78-110.38-90.78h-133.07v184.65h133.07ZM2559.53,613.78c90.78,0,126.88-38.16,126.88-104.18s-36.11-105.23-126.88-105.23h-137.2v209.41h137.2Z"/>
      <text class="cls-1" transform="translate(4.72 441.17)"><tspan x="0" y="0">el</tspan></text>
      <g>
        <g>
          <path class="cls-2" d="M141.57,1158.31v-28.23h-.77c-10.68,20.23-33.19,32.82-59.52,32.82-49.61,0-81.28-40.07-81.28-101.88s31.67-101.5,80.89-101.5c25.95,0,48.46,12.22,59.15,31.68h.76v-104.55h33.58v271.68h-32.82ZM35.1,1061.01c0,45.41,21.37,74.79,54.57,74.79s53.04-28.62,53.04-74.79-20.99-74.41-53.04-74.41-54.57,29-54.57,74.41Z"/>
          <path class="cls-2" d="M362.13,1100.31h34.34c-6.49,33.97-35.87,63.35-85.47,63.35-57.24,0-91.2-41.6-91.2-104.94,0-57.24,33.58-99.6,90.05-99.6,43.88,0,74.79,25.95,84.71,67.55,2.67,11.06,3.82,24.8,3.82,41.59h-145c1.53,47.69,25.95,69.45,57.62,69.45,28.23,0,46.55-15.65,51.13-37.4ZM253.76,1042.7h111.42c-3.43-37.78-25.56-57.63-55.33-57.63s-52.65,20.61-56.09,57.63Z"/>
          <path class="cls-2" d="M659.78,1100.31h34.34c-6.49,33.97-35.87,63.35-85.47,63.35-57.24,0-91.2-41.6-91.2-104.94,0-57.24,33.58-99.6,90.05-99.6,43.88,0,74.79,25.95,84.71,67.55,2.67,11.06,3.82,24.8,3.82,41.59h-145c1.53,47.69,25.95,69.45,57.62,69.45,28.23,0,46.55-15.65,51.13-37.4ZM551.42,1042.7h111.42c-3.43-37.78-25.56-57.63-55.33-57.63s-52.65,20.61-56.09,57.63Z"/>
          <path class="cls-2" d="M880.73,1025.14h-32.82c0-25.95-16.03-40.07-43.12-40.07-23.27,0-37.77,10.69-37.77,27.48,0,20.23,14.12,23.66,46.55,31.29,35.49,8.78,73.26,16.79,73.26,61.82,0,34.73-29.76,58.01-76.7,58.01-50.75,0-80.89-24.43-81.28-69.83h33.96c0,27.85,17.55,43.12,47.7,43.12,25.18,0,41.97-11.45,41.97-29,0-22.51-16.03-26.71-53.42-35.87-32.43-8.02-65.63-14.5-65.63-56.86,0-33.2,29.38-56.09,71.74-56.09,47.32,0,75.55,23.28,75.55,66.02Z"/>
          <path class="cls-2" d="M1106.64,1061.01c0,61.82-31.67,101.88-80.89,101.88-25.95,0-48.46-12.59-59.15-32.05h-.77v98.07h-33.58v-264.44h33.2v27.85h.76c10.3-20.23,33.2-32.82,59.15-32.82,49.6,0,81.28,39.69,81.28,101.5ZM964.31,1061.01c0,46.17,20.61,74.79,52.66,74.79s54.56-29.38,54.56-74.79-21.36-74.41-54.56-74.41-52.66,28.62-52.66,74.41Z"/>
          <path class="cls-2" d="M1284.08,1100.31h34.34c-6.49,33.97-35.87,63.35-85.47,63.35-57.24,0-91.2-41.6-91.2-104.94,0-57.24,33.58-99.6,90.05-99.6,43.88,0,74.79,25.95,84.71,67.55,2.67,11.06,3.82,24.8,3.82,41.59h-145c1.53,47.69,25.95,69.45,57.62,69.45,28.23,0,46.55-15.65,51.13-37.4ZM1175.72,1042.7h111.42c-3.43-37.78-25.56-57.63-55.33-57.63s-52.65,20.61-56.09,57.63Z"/>
          <path class="cls-2" d="M1529.45,1033.16h-35.11c-2.29-27.48-21.37-46.56-48.08-46.56-34.34,0-55.33,28.62-55.33,74.79s20.99,74.79,55.33,74.79c26.71,0,45.79-21.36,48.08-49.22h35.11c-3.82,44.27-35.49,76.7-82.8,76.7-56.09,0-91.2-39.3-91.2-102.27s35.1-102.27,91.2-102.27c46.55,0,78.98,30.53,82.8,74.03Z"/>
          <path class="cls-2" d="M1655.39,1130.08v27.47c-5.73,1.53-14.5,2.3-21.37,2.3-37.02,0-52.66-15.64-52.66-55.71v-112.94h-33.58v-26.71h33.58v-46.94h33.58v46.94h38.54v26.71h-38.54v109.51c0,22.13,7.25,31.29,26.71,31.29,4.96,0,10.3-.76,13.74-1.9Z"/>
          <path class="cls-2" d="M1840.84,1034.3v74.41c0,21.37,1.91,37.78,4.58,49.61h-30.52c-1.91-8.77-2.67-19.46-2.67-28.23h-.77c-13.36,20.61-35.87,32.43-67.16,32.43-40.45,0-65.63-24.04-65.63-56.86s17.93-52.28,73.65-61.05c17.17-2.67,40.82-5.34,56.09-6.49v-7.62c0-32.06-17.93-45.42-43.88-45.42-28.24,0-43.12,15.65-44.26,38.55h-33.58c1.91-36.63,28.62-64.5,77.84-64.5s76.31,24.04,76.31,75.17ZM1808.41,1063.68c-14.88,1.15-35.87,3.43-50.75,6.1-33.19,4.97-44.64,14.5-44.64,33.58s14.5,33.2,39.68,33.2c15.65,0,30.53-5.34,40.07-15.26,11.83-12.22,15.64-22.9,15.64-45.79v-11.84Z"/>
          <path class="cls-2" d="M2025.54,1158.31v-28.23h-.77c-10.68,20.23-33.19,32.82-59.52,32.82-49.61,0-81.28-40.07-81.28-101.88s31.67-101.5,80.89-101.5c25.95,0,48.46,12.22,59.15,31.68h.76v-104.55h33.58v271.68h-32.82ZM1919.08,1061.01c0,45.41,21.37,74.79,54.57,74.79s53.04-28.62,53.04-74.79-20.99-74.41-53.04-74.41-54.57,29-54.57,74.41Z"/>
          <path class="cls-2" d="M2206.82,969.24c63.35,0,102.27,35.49,102.27,92.34s-38.92,91.96-102.27,91.96-102.27-35.1-102.27-91.96,38.92-92.34,102.27-92.34ZM2206.82,1118.44c46.17,0,74.79-21.75,74.79-56.85s-28.62-57.24-74.79-57.24-74.79,21.75-74.79,57.24,28.62,56.85,74.79,56.85Z"/>
          <path class="cls-2" d="M2454.01,964.09v30.15c-4.2-.38-9.16-1.15-13.35-1.15-36.63,0-57.24,23.66-57.24,66.4v98.82h-33.58v-193.84h32.06v29.76h.76c12.97-21.37,32.43-31.68,57.24-31.68,4.2,0,9.92.38,14.12,1.53Z"/>
          <path class="cls-2" d="M2608.95,1100.31h34.34c-6.49,33.97-35.87,63.35-85.48,63.35-57.24,0-91.2-41.6-91.2-104.94,0-57.24,33.58-99.6,90.05-99.6,43.88,0,74.79,25.95,84.71,67.55,2.67,11.06,3.81,24.8,3.81,41.59h-144.99c1.53,47.69,25.95,69.45,57.62,69.45,28.24,0,46.56-15.65,51.13-37.4ZM2500.58,1042.7h111.42c-3.43-37.78-25.56-57.63-55.33-57.63s-52.66,20.61-56.09,57.63Z"/>
          <path class="cls-2" d="M2829.89,1025.14h-32.82c0-25.95-16.03-40.07-43.12-40.07-23.28,0-37.78,10.69-37.78,27.48,0,20.23,14.12,23.66,46.56,31.29,35.49,8.78,73.26,16.79,73.26,61.82,0,34.73-29.76,58.01-76.7,58.01-50.75,0-80.9-24.43-81.28-69.83h33.96c0,27.85,17.55,43.12,47.69,43.12,25.19,0,41.98-11.45,41.98-29,0-22.51-16.03-26.71-53.43-35.87-32.43-8.02-65.63-14.5-65.63-56.86,0-33.2,29.38-56.09,71.74-56.09,47.32,0,75.55,23.28,75.55,66.02Z"/>
          <circle class="cls-2" cx="2206.82" cy="1061.39" r="27.22"/>
        </g>
        <circle class="cls-2" cx="1267.1" cy="1031.8" r="27.22"/>
        <circle class="cls-2" cx="2519.36" cy="1031.8" r="27.22"/>
      </g>
      <path class="cls-2" d="M1902.57,11.33c2.78,50.02,13.33,127.22,51.93,212.44,29.41,64.93,65.55,113.43,94.42,146.35-17.31,50.36-34.62,100.71-51.93,151.07h-297.42c-17.31-50.36-34.62-100.71-51.93-151.07,28.87-32.92,65.01-81.42,94.42-146.35,38.6-85.23,49.15-162.42,51.93-212.44h-234.02v419.88c0,194.93,105.18,303.27,288.83,303.27s287.79-108.35,287.79-303.27V11.33h-234.02Z"/>
      <path class="cls-2" d="M728.61,368.09c-79.22,0-109.1,29.88-109.1,109.1,0-79.22-29.88-109.1-109.1-109.1,79.22,0,109.1-29.88,109.1-109.1,0,79.22,29.88,109.1,109.1,109.1Z"/>
    </g>
  </g>
</svg>